<?xml version="1.0" encoding="utf-8"?>
<!-- Generator: Adobe Illustrator 23.0.3, SVG Export Plug-In . SVG Version: 6.00 Build 0)  -->
<svg version="1.1" id="Layer_1" xmlns="http://www.w3.org/2000/svg" xmlns:xlink="http://www.w3.org/1999/xlink" x="0px" y="0px"
	 viewBox="0 0 56 56" style="enable-background:new 0 0 56 56;" xml:space="preserve">
<style type="text/css">
	.st0{fill:#FFFFFF;}
	.st1{fill:#333333;}
</style>
<g>
	<circle class="st0" cx="28" cy="28" r="28"/>
</g>
<g>
	<path class="st1" d="M24.86,34.38c-0.28-0.92-0.42-1.68-0.42-2.27s0.11-1.2,0.34-1.85c0.22-0.64,0.76-1.39,1.62-2.25
		c0.85-0.85,1.74-1.57,2.65-2.16c0.91-0.59,1.71-1.32,2.42-2.18c0.7-0.87,1.05-1.79,1.05-2.77c0-2.1-1.43-3.15-4.28-3.15
		c-1.18,0-2.3,0.22-3.36,0.67c-0.08,1.46-0.35,2.62-0.8,3.49h-3.99c-0.36-0.73-0.64-1.66-0.84-2.79c-0.2-1.13-0.29-1.94-0.29-2.42
		c0-0.48,0-0.8,0-0.97c1.2-0.81,2.68-1.44,4.43-1.89c1.75-0.45,3.44-0.67,5.06-0.67c3.11,0,5.66,0.71,7.64,2.12
		c1.99,1.41,2.98,3.44,2.98,6.07c0,1.15-0.25,2.21-0.73,3.17c-0.49,0.97-1.09,1.75-1.81,2.35c-0.71,0.6-1.48,1.21-2.31,1.83
		c-0.83,0.62-1.59,1.18-2.29,1.68c-1.48,1.01-2.23,2.21-2.23,3.61c0,0.11,0.01,0.24,0.04,0.38H24.86z M27.19,42.83
		c-2.34,0-3.51-1.06-3.51-3.17c0-2.11,1.17-3.17,3.51-3.17c2.34,0,3.51,1.06,3.51,3.17C30.7,41.77,29.53,42.83,27.19,42.83z"/>
</g>
</svg>
